<svg width="272" height="76" viewBox="0 0 272 76" fill="none" xmlns="http://www.w3.org/2000/svg">
<path d="M61.543 58V19.532H75.408C78.122 19.532 80.6 19.9057 82.842 20.653C85.084 21.361 86.8737 22.5803 88.211 24.311C89.5483 26.0417 90.217 28.441 90.217 31.509C90.217 34.341 89.5877 36.6813 88.329 38.53C87.1097 40.3393 85.4577 41.6963 83.373 42.601L92.105 58H82.37L74.995 44.135H70.216V58H61.543ZM70.216 37.232H74.7C76.9813 37.232 78.712 36.76 79.892 35.816C81.1113 34.8327 81.721 33.397 81.721 31.509C81.721 29.621 81.1113 28.3033 79.892 27.556C78.712 26.8087 76.9813 26.435 74.7 26.435H70.216V37.232ZM97.7266 58V19.532H106.4V58H97.7266ZM122.966 58V26.848H112.405V19.532H142.259V26.848H131.698V58H122.966ZM148.257 58V19.532H156.93V58H148.257ZM166.003 58V19.532H174.912L184.942 38.648L188.718 47.144H188.954C188.797 45.0987 188.58 42.8173 188.305 40.3C188.03 37.7827 187.892 35.3833 187.892 33.102V19.532H196.152V58H187.243L177.213 38.825L173.437 30.447H173.201C173.398 32.571 173.614 34.8523 173.85 37.291C174.125 39.7297 174.263 42.0897 174.263 44.371V58H166.003ZM222.232 58.708C218.732 58.708 215.546 57.9607 212.674 56.466C209.842 54.9713 207.581 52.7687 205.889 49.858C204.237 46.908 203.411 43.2893 203.411 39.002C203.411 34.754 204.257 31.1353 205.948 28.146C207.679 25.1173 209.96 22.8163 212.792 21.243C215.624 19.6303 218.751 18.824 222.173 18.824C224.966 18.824 227.365 19.3353 229.371 20.358C231.377 21.3807 233.01 22.541 234.268 23.839L229.725 29.385C228.742 28.5197 227.7 27.792 226.598 27.202C225.497 26.612 224.12 26.317 222.468 26.317C219.479 26.317 217.04 27.4183 215.152 29.621C213.264 31.8237 212.32 34.8523 212.32 38.707C212.32 42.6403 213.225 45.7083 215.034 47.911C216.844 50.1137 219.538 51.215 223.117 51.215C223.904 51.215 224.671 51.1167 225.418 50.92C226.166 50.7233 226.775 50.4283 227.247 50.035V43.427H220.875V36.347H234.917V54.047C233.58 55.345 231.79 56.4463 229.548 57.351C227.346 58.2557 224.907 58.708 222.232 58.708ZM254.605 58.708C252.088 58.708 249.571 58.236 247.053 57.292C244.575 56.348 242.353 54.9713 240.386 53.162L245.342 47.203C246.719 48.383 248.253 49.3467 249.944 50.094C251.636 50.8413 253.268 51.215 254.841 51.215C256.651 51.215 257.988 50.8807 258.853 50.212C259.758 49.5433 260.21 48.6387 260.21 47.498C260.21 46.2787 259.699 45.3937 258.676 44.843C257.693 44.253 256.356 43.604 254.664 42.896L249.649 40.772C248.351 40.2213 247.112 39.4937 245.932 38.589C244.752 37.645 243.789 36.4847 243.041 35.108C242.294 33.7313 241.92 32.1187 241.92 30.27C241.92 28.146 242.491 26.2187 243.631 24.488C244.811 22.7573 246.424 21.3807 248.469 20.358C250.554 19.3353 252.934 18.824 255.608 18.824C257.811 18.824 260.014 19.2567 262.216 20.122C264.419 20.9873 266.346 22.246 267.998 23.898L263.573 29.385C262.315 28.4017 261.056 27.6543 259.797 27.143C258.539 26.5923 257.142 26.317 255.608 26.317C254.114 26.317 252.914 26.6317 252.009 27.261C251.144 27.851 250.711 28.6967 250.711 29.798C250.711 30.978 251.262 31.863 252.363 32.453C253.504 33.043 254.9 33.6723 256.552 34.341L261.508 36.347C263.829 37.291 265.678 38.589 267.054 40.241C268.431 41.893 269.119 44.076 269.119 46.79C269.119 48.914 268.549 50.8807 267.408 52.69C266.268 54.4993 264.616 55.9547 262.452 57.056C260.289 58.1573 257.673 58.708 254.605 58.708Z" fill="#F2F2F2"/>
<path d="M18.0532 55.6904C18.8231 54.1865 19.4676 52.8438 19.9868 51.6621C15.7437 44.071 12.8791 34.3045 11.3931 22.3628C10.9455 22.3986 10.4889 22.4165 10.0234 22.4165H7.55273C8.60905 31.4757 10.9723 40.2843 14.6426 48.8423C15.6452 51.1519 16.7821 53.4346 18.0532 55.6904ZM36.2612 56.3081C37.0848 54.6431 37.7025 53.3719 38.1143 52.4946C34.3008 45.0288 31.4989 37.9748 29.7085 31.3325C29.3325 33.1587 28.7865 35.334 28.0703 37.8584C29.0729 41.6003 30.6663 45.7181 32.8506 50.2119C33.8353 52.2171 34.9722 54.2492 36.2612 56.3081ZM40.9878 19.0059C42.7782 19.3281 44.6938 19.4893 46.7349 19.4893C48.7759 19.4893 50.7811 19.2565 52.7505 18.791H53.0728C53.4666 18.791 53.8068 18.9342 54.0933 19.2207C54.3797 19.4893 54.5229 19.8026 54.5229 20.1606C54.5229 20.5008 54.4066 20.8052 54.1738 21.0737C53.959 21.3244 53.5562 21.5124 52.9653 21.6377C51.3182 21.9958 49.7248 22.2017 48.1851 22.2554C46.7707 32.7111 45.231 40.6335 43.5659 46.0225C42.5454 49.3346 41.498 52.0828 40.4238 54.2671C39.3496 56.4513 38.5887 57.9642 38.1411 58.8057C37.6935 59.6471 37.3623 60.1305 37.1475 60.2559C36.9505 60.3991 36.6462 60.4707 36.2344 60.4707C35.8405 60.4707 35.5003 60.2738 35.2139 59.8799C31.7943 54.9027 28.9118 49.1287 26.5664 42.5581C24.3285 49.0571 21.9115 54.6252 19.3154 59.2622C19.0648 59.7814 18.6709 60.041 18.1338 60.041C17.5967 60.041 17.1849 59.7993 16.8984 59.3159C11.8854 51.1698 8.25098 41.5824 5.99512 30.5537C5.4222 27.707 4.98356 24.9588 4.6792 22.3091C3.78402 22.2375 3.04102 22.1748 2.4502 22.1211C1.37598 21.9958 0.838867 21.5034 0.838867 20.644C0.892578 20.2144 1.05371 19.8831 1.32227 19.6504C1.59082 19.3997 1.90413 19.2744 2.26221 19.2744H2.36963C4.41064 19.4893 6.84554 19.5967 9.67432 19.5967C12.521 19.5967 15.5557 19.3281 18.7783 18.791H18.9932C19.4049 18.791 19.7451 18.9342 20.0137 19.2207C20.2822 19.4893 20.4165 19.8026 20.4165 20.1606C20.4165 20.5187 20.3001 20.832 20.0674 21.1006C19.8525 21.3691 19.4587 21.5482 18.8857 21.6377C16.9701 21.8883 15.4303 22.0763 14.2666 22.2017C15.0365 29.381 16.6836 36.3545 19.208 43.1221C19.8525 44.8945 20.5866 46.6312 21.4102 48.332C25.3132 39.1117 27.5153 30.8581 28.0166 23.5713C28.0524 23.2132 28.1867 22.9178 28.4194 22.6851C28.6701 22.4344 28.9744 22.3001 29.3325 22.2822C30.1024 22.2464 30.5947 22.6224 30.8096 23.4102C32.2777 31.5026 35.196 40.0605 39.5645 49.084C41.7845 43.3906 43.7091 34.4657 45.3384 22.3091C43.6554 22.2375 42.0352 22.0674 40.4775 21.7988C40.1553 21.7451 39.8778 21.5929 39.645 21.3423C39.4302 21.0737 39.3228 20.7425 39.3228 20.3486C39.3228 19.9368 39.4749 19.6146 39.7793 19.3818C40.1016 19.1312 40.4149 19.0059 40.7192 19.0059H40.9878Z" fill="#F2F2F2"/>
</svg>
